<svg xmlns="http://www.w3.org/2000/svg" width="24" height="24" viewBox="0 0 24 24"><path d="M24 4.557c-.883.392-1.832.656-2.828.775 1.017-.609 1.798-1.574 2.165-2.724-.951.564-2.005.974-3.127 1.195-.897-.957-2.178-1.555-3.594-1.555-3.179 0-5.515 2.966-4.797 6.045-4.091-.205-7.719-2.165-10.148-5.144-.424.727-.666 1.584-.666 2.477 0 1.61.82 3.027 2.053 3.847-.76-.025-1.475-.232-2.104-.577v.062c0 2.238 1.591 4.101 3.705 4.522-.387.106-.795.162-1.214.162-.297 0-.585-.029-.865-.083.586 1.83 2.283 3.166 4.292 3.205-1.58.92-3.576 1.466-5.746 1.466-.373 0-.74-.022-1.102-.065 2.03 1.306 4.45 2.073 7.029 2.073 8.425 0 12.02-6.97 11.5-12.654.9-.645 1.68-1.45 2.3-2.39z"/></svg>